<svg aria-hidden="true" style="position:absolute;width:0;height:0" xmlns="http://www.w3.org/2000/svg" overflow="hidden"><defs><symbol id="icon-nail-polish" viewBox="0 0 32 32"><path d="M10.188.094c-.662.188-1.25.669-1.531 1.25-.081.169-.831 2.475-1.662 5.125-1.656 5.275-1.656 5.262-1.369 5.775.294.525.338.544 3.813 1.631 2.4.756 3.3 1.012 3.544 1.012.425.006.863-.213 1.094-.55.238-.344 3.231-9.887 3.281-10.469.063-.737-.275-1.525-.875-2.019-.363-.294-.375-.3-2.925-1.1-2.406-.756-2.756-.825-3.369-.656zM17.856 12.425c-.087.094-.106.256-.106.906v.794h-.238c-.306 0-.512.144-.512.369 0 .244.106.319.45.319h.3v1.063h-.256c-.344 0-.494.094-.494.306 0 .244.175.381.488.381h.262v.369c0 .563-.056.738-.337 1.038-.238.256-.375.325-1.719.85-1.631.637-1.869.794-2.162 1.394-.131.269-.162.431-.169.856-.006.456.088.981.75 4.044.481 2.238.813 3.625.9 3.806.169.331.469.613.856.794.281.131.356.131 4.969.15 5.313.019 5.106.038 5.65-.456.175-.156.369-.4.444-.55.069-.144.469-1.881.887-3.85.681-3.231.756-3.644.731-4.069-.019-.369-.069-.544-.206-.806-.306-.55-.531-.694-2.056-1.294-.756-.3-1.475-.594-1.587-.663s-.269-.244-.356-.387c-.131-.225-.156-.35-.156-.744v-.481h.238c.288 0 .512-.15.512-.337 0-.212-.188-.35-.488-.35h-.262v-1.063h.275c.313 0 .475-.119.475-.344 0-.194-.219-.344-.512-.344h-.238v-.769c0-.594-.025-.8-.1-.906l-.094-.137h-3.019c-2.844 0-3.025.006-3.119.113zM7.975 14.175C7.962 14.2 7.3 16.3 6.5 18.844l-1.444 4.625-.75 1.175c-.413.644-.775 1.244-.806 1.331-.144.369-.044.806.237 1.106.237.25.344.294 1.538.669 1.169.363 1.375.375 1.787.106.425-.288.481-.5.55-2.137l.056-1.438 1.456-4.644c.8-2.556 1.425-4.669 1.4-4.694-.05-.044-.644-.238-2.256-.731-.144-.044-.275-.063-.294-.037z"/><path d="M13.313 27.256c0 1.319.031 2.594.063 2.825.131.906.725 1.594 1.569 1.819.363.1.912.106 6.181.087l5.781-.019.387-.181c.456-.206.9-.644 1.1-1.087.131-.288.137-.363.15-3.044.006-1.512 0-2.725-.012-2.688-.019.031-.212.919-.431 1.962-.45 2.106-.55 2.375-1.038 2.863a2.496 2.496 0 01-1.419.706c-.281.044-1.969.063-4.988.05l-4.563-.019-.363-.144c-.669-.275-1.25-.856-1.45-1.456-.056-.156-.275-1.125-.494-2.144-.225-1.025-.419-1.875-.438-1.894-.019-.025-.037 1.044-.037 2.363z"/></symbol><symbol id="icon-piercings" viewBox="0 0 32 32"><path d="M14.938.069c-1.419.1-2.819.363-3.863.719-1.031.35-2.213 1.031-2.831 1.625l-.225.219-.806-.337c-.719-.306-.819-.369-.938-.575-.206-.356-.638-.762-.987-.919C4.857.613 4.157.607 3.75.795c-.712.325-1.131.937-1.175 1.712-.025.419-.006.519.144.863.188.419.544.781.981 1.019.231.125.362.144.956.144.656.006.713.013 1.237.244.3.131.544.256.544.275s-.088.3-.188.625c-.287.881-.3 1.094-.106 1.287.088.088.231.162.313.162.281 0 .412-.188.575-.794.831-3.125 3.037-4.763 7.069-5.237 1.131-.137 3.113-.188 3.806-.1 3.231.4 5.681 2.7 6.194 5.813.181 1.088.044 3.225-.319 4.944a19.474 19.474 0 01-3.9 8.156c-.7.869-1.706 1.837-3.931 3.794-1.244 1.1-2.394 2.156-2.544 2.35-.412.519-.637.981-.944 1.925-.306.95-.55 1.4-1.037 1.894-.825.837-1.762 1.194-3.169 1.194-1.356 0-2.369-.35-3.213-1.106-.3-.269-.619-.269-.813-.006-.225.3-.037.6.706 1.106 1.056.731 2.075.988 3.65.925 1-.038 1.406-.131 2.144-.488 1.269-.606 2.269-1.825 2.613-3.181a6.36 6.36 0 01.25-.762c.3-.744.581-1.038 2.875-3.05 3.031-2.663 4.125-3.819 5.325-5.625 1.113-1.681 1.988-3.563 2.519-5.406.106-.381.206-.719.219-.762.031-.094 1.163.381 1.25.525a2.023 2.023 0 002.438.825c1.581-.594 1.625-2.869.075-3.594-.363-.169-.969-.2-1.431-.081-.256.063-.306.05-1.025-.25l-.75-.325V8.329c.006-1.631-.05-2.031-.413-3.075-.988-2.819-3.531-4.813-6.613-5.188-.6-.069-2.063-.069-3.125.006zM5.106 1.788c.612.469.537 1.381-.144 1.712-.331.163-.625.156-.931-.019-.344-.194-.531-.494-.531-.85.006-.85.944-1.35 1.606-.844zm1.688 1.343l.438.188c.138.05.138.056-.112.456l-.256.4-.4-.169c-.219-.087-.388-.175-.381-.194.013-.019.1-.206.206-.425.1-.212.188-.388.194-.388s.144.056.313.131zm19.019 8.094c0 .044-.025.094-.056.113-.031.025-.094.181-.137.35-.044.175-.1.313-.131.313-.025 0-.206-.069-.394-.156-.275-.119-.344-.175-.319-.262.019-.063.05-.256.075-.425.019-.175.05-.331.063-.356.044-.069.9.338.9.425zm2.193.169c.481.325.631.875.363 1.356-.375.669-1.431.656-1.788-.019-.131-.256-.131-.706 0-.963.262-.494.975-.681 1.425-.375z"/><path d="M14.012 3.913c-2.956.494-5.3 2.844-5.831 5.838-.106.625-.094 1.912.031 2.488.256 1.219.956 2.069 2.081 2.537.356.15.525.262.631.412.256.381.137.9-.262 1.087-.3.144-.394.131-1.137-.15-.369-.137-.738-.25-.819-.25-.169 0-.456.256-.456.4 0 .181.137.4.306.475 1.238.569 1.95.669 2.544.363.756-.394 1.088-1.238.8-2.063-.162-.488-.475-.787-1.15-1.094-.825-.387-1.287-.85-1.519-1.531-.125-.363-.25-1.488-.194-1.769.031-.188.075-.231.363-.331.844-.319 2.088-.425 2.981-.262 2.081.381 3.863 2.044 4.4 4.113.25.938.231 2.119-.038 2.975-.15.494-.15.613.025.775.194.181.481.181.656-.006.169-.175.369-.962.45-1.75.231-2.269-.906-4.688-2.825-5.988a7.918 7.918 0 00-2.05-.944c-.469-.125-.662-.144-1.688-.137-.988 0-1.219.019-1.594.137-.238.069-.444.119-.463.106-.044-.05.188-.681.431-1.188a7.45 7.45 0 01.563-.931c.262-.344.35-.419.456-.394.106.019 9.281 3.869 10.394 4.356l.256.113-.056.425a7.007 7.007 0 01-.219.981c-.125.419-.15.588-.106.719.119.331.619.406.806.113.163-.25.406-1.238.481-1.944.212-2.069-.55-4.194-2.044-5.688a7.13 7.13 0 00-6.206-1.994zm2.676 1.025a6.456 6.456 0 012.869 1.631c.387.388 1.031 1.237.981 1.287-.012.019-.5-.169-1.081-.412C18.882 7.2 18.338 7 18.257 7c-.344 0-.556.438-.356.719.05.075.731.394 1.65.781l1.569.656.063.25c.031.137.081.381.1.55.044.294.044.294-.1.238-.356-.131-9.713-4.081-9.738-4.106-.05-.044.131-.194.506-.419l.363-.219 1.912.806c1.05.444 1.962.806 2.031.806a.455.455 0 00.431-.631c-.081-.181-.181-.237-2.15-1.063-.8-.331-.912-.4-.787-.444.575-.213 2.094-.206 2.938.013zM5.881 8.537c-.119.156-.131.25-.131 1.238 0 .588-.031 1.194-.069 1.344-.1.45-.35.887-.813 1.412-1.462 1.681-1.994 3.281-1.994 5.988 0 1.212.075 1.813.431 3.725.35 1.825.337 2.188-.1 3.25-.381.919-.475 1.756-.3 2.6.138.656.444.875.813.581.169-.131.169-.144.119-.544-.094-.706-.056-1.5.087-1.881.5-1.356.525-1.456.556-2.056.031-.538 0-.775-.3-2.35l-.331-1.75v-1.531c-.006-1.637.044-2.075.319-2.969.294-.925.737-1.694 1.475-2.525.844-.956 1.044-1.588 1.044-3.287 0-1.106-.006-1.137-.144-1.269-.206-.194-.5-.181-.662.025zM15.381 19.494c-.537.538-1.006.856-1.831 1.256-.981.475-1.5.962-1.925 1.813-.231.475-.444.719-.75.875a1.365 1.365 0 01-1 .125 1.412 1.412 0 01-.963-.756c-.256-.519-.231-.869.15-1.806.175-.425.313-.819.313-.875 0-.206-.244-.438-.463-.438-.287 0-.406.163-.762 1.031-.294.731-.3.769-.306 1.406 0 .619.013.681.2 1.069.25.512.637.875 1.194 1.137.369.169.481.194.95.194 1.012-.006 1.744-.481 2.25-1.481.369-.731.706-1.05 1.5-1.431.85-.413 1.475-.837 2.044-1.394.4-.394.456-.481.456-.675 0-.275-.194-.481-.45-.481-.131 0-.275.106-.606.431zM7.456 25.881c-.969.313-1.013.363-1.194 1.281-.188.938-.181 1.038.075 1.294.431.431 1.106.981 1.25 1.019.225.056 1.569-.387 1.794-.587.162-.15.2-.269.344-.969.131-.656.15-.837.088-.981-.069-.169-.881-.944-1.188-1.137-.287-.181-.4-.175-1.169.081zm1.163 1.138l.275.281-.088.413c-.044.225-.094.438-.113.462-.019.031-.225.119-.463.194l-.419.144-.237-.188a5.423 5.423 0 01-.369-.337c-.138-.144-.138-.15-.031-.606l.106-.456.438-.137c.25-.081.475-.125.531-.094.05.025.219.175.369.325z"/></symbol><symbol id="icon-clean" viewBox="0 0 32 32"><path d="M25.75 1.95c-.55.275-2.4 2.275-5.05 5.425-2.3 2.725-4.2 5.05-4.2 5.125s.95 1.075 2.1 2.225c1.6 1.6 2.2 2.05 2.45 1.85 3.825-3 9.55-7.725 10.025-8.325 1.65-1.95.875-5.125-1.6-6.4-.95-.475-2.675-.45-3.725.1zm2.1 3.2c.55.2.5 1.275-.05 1.575-.925.5-1.75-.675-1-1.425.35-.35.5-.35 1.05-.15zM7.825 4.45c-.325.05-.9.425-1.325.825-1.475 1.475-.8 3.875 1.225 4.5 2.6.775 4.65-2.65 2.675-4.5-.65-.6-1.75-.975-2.575-.825zM9.575 12.25c-.325.125-.575.325-.575.425 0 .275 11.45 11.7 11.575 11.575.75-.85.875-2.775.3-4.175-.5-1.2-6.175-6.925-7.5-7.575-1.075-.525-2.85-.625-3.8-.25zM1.95 14.175c-2.575 2.625-2.575 5.025 0 7.65 1.6 1.625 2.55 1.85 4.15 1.075.925-.45 1.35-.55 1.7-.375 1 .55.35 1.625-1.425 2.375l-1 .4 1.1.975c1.4 1.25 2.2 1.35 3.95.425.875-.45 1.1-.5 1.425-.225.225.2.4.55.4.775 0 .575-1.125 1.5-2.05 1.675-.95.2-.875.475.3 1.075 1.075.55 2.8.65 3.9.25.375-.15 1.625-1.175 2.775-2.3l2.1-2.05L7.4 14.025 6.2 15.15c-1.25 1.15-1.825 1.3-2.275.55-.2-.3-.175-.6.075-1.075s.275-.775.075-1.075c-.45-.725-.925-.6-2.125.625zM26.875 18.125c-1.225 1.2-.475 2.975 1.25 2.975C29.2 21.1 30 20.35 30 19.325c0-.8-1.05-1.825-1.875-1.825-.35 0-.925.275-1.25.625zM22.8 25.3c-.15.15-.3.525-.3.825 0 .375-.225.6-.8.75-1.425.425-1.225 1.85.25 1.875.4 0 .55.15.55.55.025 1.475 1.45 1.65 1.85.25.175-.6.375-.8.775-.8 1.325 0 1.475-1.475.2-1.85-.575-.175-.85-.45-1-1-.225-.85-1-1.125-1.525-.6z"/></symbol><symbol id="icon-manicure" viewBox="0 0 32 32"><path d="M24.9 3.475C22.475 5.9 22.225 6.25 22.275 6.95c.075.65-.1 1-1.075 1.975-.65.675-1.225 1.45-1.275 1.725-.025.3-.375.9-.75 1.325-.375.45-.625.925-.525 1.05.075.125-.1.225-.375.225-.7 0-1.1.875-.9 1.925l.15.875.75-.825c.4-.45.725-1.025.725-1.275 0-.6 1.475-1.925 2.125-1.95.3 0 1.075-.55 1.725-1.225 1.05-1.075 1.325-1.225 1.95-1.1.675.125.975-.1 3.475-2.6 3.25-3.25 3.35-3.6 1.65-5.275C28.325.225 28.05.3 24.9 3.475zM15.75 3.625c0 .2-.3.525-.675.725-.5.275-.575.375-.275.4.25 0 .625.3.875.65.425.65.425.65.625.125.1-.3.425-.625.725-.725.5-.2.5-.2-.125-.5-.35-.15-.65-.45-.65-.675 0-.2-.1-.375-.25-.375-.125 0-.25.175-.25.375zM6.2 9.775c-.65.625-.675.675-.2.8.275.075.6.4.725.725.25.575.25.575.4.05.1-.3.375-.65.625-.75.425-.2.4-.275-.225-.85l-.65-.625-.675.65z"/><path d="M14.475 12.9c-.55.575-.6.875-.675 3.45-.1 3.45.025 3.65 2.2 3.65 1.825 0 2.25-.375 2.25-1.9 0-1.025-.025-1.075-.5-.8-.675.425-1 .05-1.275-1.45-.2-1.1-.1-1.95.4-3.175.15-.35.025-.425-.8-.425-.75 0-1.15.175-1.6.65zM4.55 16.625c-.425.2-.875.55-1.025.85-.375.7-.35 6.1.025 6.475.4.4 3.25.4 3.65 0 .2-.2.3-1.3.3-3.325 0-2.825-.05-3.075-.55-3.55-.775-.7-1.475-.825-2.4-.45z"/><path d="M12.375 16.5c-.375.55-.5 12.575-.125 13.225.25.5.475.525 3.75.525s3.5-.025 3.75-.525c.425-.75.225-12.85-.175-13.275-.25-.25-.325.05-.325 1.4 0 1.525-.075 1.75-.725 2.425-.675.675-.875.725-2.5.725-1.475 0-1.85-.1-2.45-.6-.625-.525-.725-.825-.825-2.45-.1-1.325-.2-1.725-.375-1.45zM25.15 17.025c-.65.5-.65.575-.65 3.575 0 2.025.1 3.15.3 3.35.175.175.95.3 1.725.3 2.1 0 2.225-.2 2.225-3.5 0-2.55-.05-2.75-.65-3.475-.775-.95-1.95-1.025-2.95-.25zM1.825 20.825c-.45.95-.45 8.7-.025 9.125.325.325 6.3.45 7.05.15.35-.125.4-.775.4-4.575 0-3.5-.075-4.525-.375-4.925-.325-.425-.35-.3-.375 1.475 0 1.725-.075 2.025-.625 2.55-.525.55-.825.625-2.25.625-1.875 0-3.05-.475-3.25-1.325-.075-.3-.15-1.275-.175-2.175-.075-1.5-.1-1.575-.375-.925z"/><path d="M23.075 20.675c-.225.375-.325 1.875-.325 4.9 0 3.75.05 4.4.4 4.525.75.3 6.725.175 7.05-.15.45-.45.4-8.075-.075-9.075-.325-.725-.325-.7-.35.925-.05 2.85-.625 3.45-3.375 3.45-1.225 0-1.725-.125-2.225-.5-.6-.475-.65-.7-.725-2.575-.075-1.775-.125-1.975-.375-1.5z"/></symbol><symbol id="icon-pedicure" viewBox="0 0 32 32"><path d="M3.25 2.475c-.4.775-.325 6.15.1 6.5.225.175 1.05.275 2.2.225l1.825-.075L7.45 5.9c.05-2.15-.025-3.325-.225-3.55s-.85-.35-2-.35c-1.425 0-1.75.075-1.975.475zM20.05 2.175c-1.025.075-1.375.225-1.65.65-.175.3-1.2 2.875-2.275 5.725-1.85 4.875-2.05 5.3-3.55 7.1-.9 1.075-2.125 2.975-2.825 4.35-1.45 2.925-3.075 4.625-5.4 5.775-2.35 1.15-2.375 2.1-.15 3.4.95.575 1.475.7 2.8.7 2.175 0 2.8-.35 6.375-3.65 3.3-3.05 4.675-3.85 7.15-4.2 1.95-.275 2.925-.725 3.8-1.75 1.55-1.85 1.5-4.15-.1-5.9-1.625-1.75-1.5-2.3 1.65-6.725C27.325 5.6 28.5 3.725 28.5 3.475c0-.275-.225-.7-.5-.975-.45-.45-.8-.5-3.55-.45-1.7.025-3.675.075-4.4.125zM3.925 10.425c-.1.075-.175.6-.175 1.125v.95H6.5v-2.25H5.3c-.675 0-1.3.075-1.375.175zM3.925 13.675C3.6 14 3.75 16.15 4.15 16.7c.425.6 1.55.75 2.05.25.175-.175.3-.975.3-1.875V13.5H5.3c-.675 0-1.3.075-1.375.175z"/><path d="M4.5 19.425c-.6 1.025-.525 1.925.225 2.325.675.35 1.675-.075 1.85-.775.175-.65-.725-2.475-1.225-2.475-.175 0-.55.425-.85.925z"/></symbol><symbol id="icon-scissor" viewBox="0 0 32 32"><path d="M19.55 2c-.15.35-1.325 3.2-2.6 6.375-2.325 5.7-2.35 5.75-2 6.675.325.825.3 1.05-.075 2.05l-.425 1.125-5.225 2.65c-2.85 1.45-5.275 2.75-5.35 2.85-.15.275 1.975 4.35 2.35 4.475.45.15.325-.65-.35-1.975-.875-1.7-.5-2.1.425-.45 1.275 2.325 1.75 2.275.55-.05-.35-.7-.575-1.4-.525-1.55.05-.175.475.45.925 1.375.475.925.925 1.625 1.05 1.55.1-.075-.15-.8-.575-1.65-.975-1.95-.775-2.175.3-.275.975 1.725.95 1.7 1.125 1.525.075-.075-.2-.825-.625-1.675C7.7 23.4 7.65 23.25 7.95 23.25c.125 0 .525.675.925 1.5s.8 1.5.925 1.5c.35 0 .225-.35-.55-1.8-.425-.775-.675-1.475-.55-1.55s.55.55.925 1.35c.4.825.875 1.5 1.05 1.5.225 0 .1-.45-.425-1.5-.4-.825-.75-1.55-.75-1.625 0-.4.575.3 1.1 1.325s.575 1.425.475 2.85c-.125 1.4-.05 1.8.375 2.5 1.35 2.175 4.45 1.85 5.725-.55.675-1.275.725-2.425.175-3.7-.475-1.1-1.35-3.825-1.325-4.175 0-.15.225.175.5.675.275.525.6.95.725.95.375 0 .325-.175-.525-1.775-.45-.825-.725-1.55-.65-1.625s.5.525.9 1.375c.425.85.9 1.525 1.025 1.525.35 0 .325-.1-.5-1.75-.425-.825-.675-1.5-.55-1.5s.525.675.925 1.5.8 1.5.925 1.5c.35 0 .225-.475-.55-2-1-1.975-.6-1.925.475.05 1.025 1.85 1.35 1.575.4-.3-.35-.7-.6-1.425-.55-1.575.05-.175.45.4.9 1.25.425.875.9 1.575 1.025 1.575.35 0 .35 0-.5-1.525-.775-1.425-.875-1.725-.55-1.725.1 0 .5.625.875 1.375s.775 1.375.925 1.375c.35 0 .325-.1-.5-1.75-1-1.975-.6-1.925.475.05 1.025 1.85 1.35 1.575.4-.3-.35-.7-.6-1.425-.55-1.575.05-.175.45.4.9 1.25.425.875.9 1.575 1.025 1.575.35 0 .35 0-.5-1.525-.775-1.425-.875-1.725-.55-1.725.1 0 .5.625.875 1.375S23.6 19 23.75 19c.35 0 .325-.1-.5-1.75-1-2-.55-1.925.5.05 1 1.85 1.325 1.575.375-.3-.35-.7-.6-1.425-.55-1.575.05-.175.45.4.9 1.25.425.875.9 1.575 1.025 1.575.35 0 .325-.1-.5-1.75-.95-1.875-.625-1.975.375-.125.4.75.825 1.375.925 1.375.3 0 .25-.15-.55-1.75-.425-.825-.675-1.5-.55-1.5s.525.675.925 1.5.8 1.5.925 1.5c.35 0 .225-.45-.425-1.75-.95-1.85-.725-2.1.275-.325 1.15 2.025 1.6 2.05.6.05-.425-.825-.725-1.65-.675-1.8.05-.175.45.4.9 1.25.425.875.9 1.575 1.025 1.575.375 0 .3-.225-.5-1.675-.8-1.425-.85-1.575-.55-1.575.125 0 .475.575.8 1.25.325.7.75 1.4.925 1.55.55.45.4-.175-.425-1.8-.425-.825-.65-1.5-.5-1.5.125 0 .575.675 1 1.5.425.85.875 1.45.975 1.375.125-.075-.1-.725-.5-1.45-.4-.7-.725-1.45-.725-1.625 0-.675.45-.25 1 .95.625 1.325 1.075 1.85 1.475 1.7.275-.075-1.275-3.575-1.9-4.25-.375-.425-.75-.275-6.975 2.95-3.625 1.85-6.6 3.325-6.6 3.25 0-.05.85-3.525 1.875-7.7C19.825 2.6 20.275.275 19.55 2zm-3.225 11.9c.225.25-.1.85-.45.85-.425 0-.7-.425-.5-.75.175-.275.7-.325.95-.1zm-3.4 7.4c-.075.2-.15.125-.15-.15-.025-.275.05-.425.125-.325.075.075.1.3.025.475zm-.475.575c.15.35.2.625.075.625-.1 0-.325-.275-.475-.625s-.2-.625-.075-.625c.1 0 .325.275.475.625zm-.575.625c.425.825.45 1 .175 1-.125 0-.4-.4-.625-.875-.5-1.05-.1-1.175.45-.125zm-.725.775c.35.7.575 1.325.5 1.4-.1.125-1.4-2.225-1.4-2.55 0-.375.3.025.9 1.15zm4.775 1.775c.725.8.9 1.575.575 2.55-.35 1.05-1.175 1.85-2.2 2.05-.65.125-.9.025-1.55-.6-1.175-1.175-1-2.75.45-3.975.875-.75 2.05-.75 2.725-.025z"/><path d="M24.125 10.15c-7 2.9-6.35 2.55-6.625 3.65-.15.55-.25 1.1-.2 1.225s.8-.225 1.7-.75c.9-.525 3.375-1.975 5.5-3.25 2.125-1.25 3.65-2.275 3.375-2.25-.275 0-1.95.625-3.75 1.375zM2.975 14.5c-1.875.55-3.125 2.325-2.9 4.1.1.75.375 1.25 1.05 1.875.875.775 1.025.825 2.35.725 1.25-.1 1.875-.375 5.9-2.775 2.475-1.475 4.65-2.775 4.85-2.9s.275-.425.175-.7c-.15-.475-.175-.475-1.475-.05-1.75.625-4.6.6-6.95-.025-2.05-.55-2.075-.55-3-.25zm2.65 1.625C6.675 17.15 6.35 18.7 4.9 19.7c-1.675 1.15-3.65.35-3.65-1.5 0-2.225 2.875-3.6 4.375-2.075z"/></symbol></defs></svg>