<svg aria-hidden="true" style="position: absolute; width: 0; height: 0; overflow: hidden;" version="1.1" xmlns="http://www.w3.org/2000/svg" xmlns:xlink="http://www.w3.org/1999/xlink">
<defs>
<symbol id="icon-nail-polish" viewBox="0 0 32 32">
<path d="M10.188 0.094c-0.662 0.188-1.25 0.669-1.531 1.25-0.081 0.169-0.831 2.475-1.662 5.125-1.656 5.275-1.656 5.262-1.369 5.775 0.294 0.525 0.338 0.544 3.813 1.631 2.4 0.756 3.3 1.012 3.544 1.012 0.425 0.006 0.863-0.213 1.094-0.55 0.238-0.344 3.231-9.887 3.281-10.469 0.063-0.737-0.275-1.525-0.875-2.019-0.363-0.294-0.375-0.3-2.925-1.1-2.406-0.756-2.756-0.825-3.369-0.656z"></path>
<path d="M17.856 12.425c-0.087 0.094-0.106 0.256-0.106 0.906v0.794h-0.238c-0.306 0-0.512 0.144-0.512 0.369 0 0.244 0.106 0.319 0.45 0.319h0.3v1.063h-0.256c-0.344 0-0.494 0.094-0.494 0.306 0 0.244 0.175 0.381 0.488 0.381h0.262v0.369c0 0.563-0.056 0.738-0.337 1.038-0.238 0.256-0.375 0.325-1.719 0.85-1.631 0.637-1.869 0.794-2.162 1.394-0.131 0.269-0.162 0.431-0.169 0.856-0.006 0.456 0.088 0.981 0.75 4.044 0.481 2.238 0.813 3.625 0.9 3.806 0.169 0.331 0.469 0.613 0.856 0.794 0.281 0.131 0.356 0.131 4.969 0.15 5.313 0.019 5.106 0.038 5.65-0.456 0.175-0.156 0.369-0.4 0.444-0.55 0.069-0.144 0.469-1.881 0.887-3.85 0.681-3.231 0.756-3.644 0.731-4.069-0.019-0.369-0.069-0.544-0.206-0.806-0.306-0.55-0.531-0.694-2.056-1.294-0.756-0.3-1.475-0.594-1.587-0.663s-0.269-0.244-0.356-0.387c-0.131-0.225-0.156-0.35-0.156-0.744v-0.481h0.238c0.288 0 0.512-0.15 0.512-0.337 0-0.212-0.188-0.35-0.488-0.35h-0.262v-1.063h0.275c0.313 0 0.475-0.119 0.475-0.344 0-0.194-0.219-0.344-0.512-0.344h-0.238v-0.769c0-0.594-0.025-0.8-0.1-0.906l-0.094-0.137h-3.019c-2.844 0-3.025 0.006-3.119 0.113z"></path>
<path d="M7.975 14.175c-0.013 0.025-0.675 2.125-1.475 4.669l-1.444 4.625-0.75 1.175c-0.413 0.644-0.775 1.244-0.806 1.331-0.144 0.369-0.044 0.806 0.237 1.106 0.237 0.25 0.344 0.294 1.538 0.669 1.169 0.363 1.375 0.375 1.787 0.106 0.425-0.288 0.481-0.5 0.55-2.137l0.056-1.438 1.456-4.644c0.8-2.556 1.425-4.669 1.4-4.694-0.050-0.044-0.644-0.238-2.256-0.731-0.144-0.044-0.275-0.063-0.294-0.037z"></path>
<path d="M13.313 27.256c0 1.319 0.031 2.594 0.063 2.825 0.131 0.906 0.725 1.594 1.569 1.819 0.363 0.1 0.912 0.106 6.181 0.087l5.781-0.019 0.387-0.181c0.456-0.206 0.9-0.644 1.1-1.087 0.131-0.288 0.137-0.363 0.15-3.044 0.006-1.512 0-2.725-0.012-2.688-0.019 0.031-0.212 0.919-0.431 1.962-0.45 2.106-0.55 2.375-1.038 2.863-0.381 0.381-0.856 0.619-1.419 0.706-0.281 0.044-1.969 0.063-4.988 0.050l-4.563-0.019-0.363-0.144c-0.669-0.275-1.25-0.856-1.45-1.456-0.056-0.156-0.275-1.125-0.494-2.144-0.225-1.025-0.419-1.875-0.438-1.894-0.019-0.025-0.037 1.044-0.037 2.363z"></path>
</symbol>
<symbol id="icon-piercings" viewBox="0 0 32 32">
<path d="M14.938 0.069c-1.419 0.1-2.819 0.363-3.863 0.719-1.031 0.35-2.213 1.031-2.831 1.625l-0.225 0.219-0.806-0.337c-0.719-0.306-0.819-0.369-0.938-0.575-0.206-0.356-0.638-0.762-0.987-0.919-0.431-0.188-1.131-0.194-1.538-0.006-0.712 0.325-1.131 0.937-1.175 1.712-0.025 0.419-0.006 0.519 0.144 0.863 0.188 0.419 0.544 0.781 0.981 1.019 0.231 0.125 0.362 0.144 0.956 0.144 0.656 0.006 0.713 0.013 1.237 0.244 0.3 0.131 0.544 0.256 0.544 0.275s-0.088 0.3-0.188 0.625c-0.287 0.881-0.3 1.094-0.106 1.287 0.088 0.088 0.231 0.162 0.313 0.162 0.281 0 0.412-0.188 0.575-0.794 0.831-3.125 3.037-4.763 7.069-5.237 1.131-0.137 3.113-0.188 3.806-0.1 3.231 0.4 5.681 2.7 6.194 5.813 0.181 1.088 0.044 3.225-0.319 4.944-0.625 2.95-1.975 5.775-3.9 8.156-0.7 0.869-1.706 1.837-3.931 3.794-1.244 1.1-2.394 2.156-2.544 2.35-0.412 0.519-0.637 0.981-0.944 1.925-0.306 0.95-0.55 1.4-1.037 1.894-0.825 0.837-1.762 1.194-3.169 1.194-1.356 0-2.369-0.35-3.213-1.106-0.3-0.269-0.619-0.269-0.813-0.006-0.225 0.3-0.037 0.6 0.706 1.106 1.056 0.731 2.075 0.988 3.65 0.925 1-0.038 1.406-0.131 2.144-0.488 1.269-0.606 2.269-1.825 2.613-3.181 0.056-0.225 0.169-0.569 0.25-0.762 0.3-0.744 0.581-1.038 2.875-3.050 3.031-2.663 4.125-3.819 5.325-5.625 1.113-1.681 1.988-3.563 2.519-5.406 0.106-0.381 0.206-0.719 0.219-0.762 0.031-0.094 1.163 0.381 1.25 0.525 0.5 0.819 1.531 1.169 2.438 0.825 1.581-0.594 1.625-2.869 0.075-3.594-0.363-0.169-0.969-0.2-1.431-0.081-0.256 0.063-0.306 0.050-1.025-0.25l-0.75-0.325v-1.481c0.006-1.631-0.050-2.031-0.413-3.075-0.988-2.819-3.531-4.813-6.613-5.188-0.6-0.069-2.063-0.069-3.125 0.006zM5.106 1.788c0.612 0.469 0.537 1.381-0.144 1.712-0.331 0.163-0.625 0.156-0.931-0.019-0.344-0.194-0.531-0.494-0.531-0.85 0.006-0.85 0.944-1.35 1.606-0.844zM6.794 3.131c0.162 0.069 0.362 0.156 0.438 0.188 0.138 0.050 0.138 0.056-0.112 0.456l-0.256 0.4-0.4-0.169c-0.219-0.087-0.388-0.175-0.381-0.194 0.013-0.019 0.1-0.206 0.206-0.425 0.1-0.212 0.188-0.388 0.194-0.388s0.144 0.056 0.313 0.131zM25.813 11.225c0 0.044-0.025 0.094-0.056 0.113-0.031 0.025-0.094 0.181-0.137 0.35-0.044 0.175-0.1 0.313-0.131 0.313-0.025 0-0.206-0.069-0.394-0.156-0.275-0.119-0.344-0.175-0.319-0.262 0.019-0.063 0.050-0.256 0.075-0.425 0.019-0.175 0.050-0.331 0.063-0.356 0.044-0.069 0.9 0.338 0.9 0.425zM28.006 11.394c0.481 0.325 0.631 0.875 0.363 1.356-0.375 0.669-1.431 0.656-1.788-0.019-0.131-0.256-0.131-0.706 0-0.963 0.262-0.494 0.975-0.681 1.425-0.375z"></path>
<path d="M14.012 3.913c-2.956 0.494-5.3 2.844-5.831 5.838-0.106 0.625-0.094 1.912 0.031 2.488 0.256 1.219 0.956 2.069 2.081 2.537 0.356 0.15 0.525 0.262 0.631 0.412 0.256 0.381 0.137 0.9-0.262 1.087-0.3 0.144-0.394 0.131-1.137-0.15-0.369-0.137-0.738-0.25-0.819-0.25-0.169 0-0.456 0.256-0.456 0.4 0 0.181 0.137 0.4 0.306 0.475 1.238 0.569 1.95 0.669 2.544 0.363 0.756-0.394 1.088-1.238 0.8-2.063-0.162-0.488-0.475-0.787-1.15-1.094-0.825-0.387-1.287-0.85-1.519-1.531-0.125-0.363-0.25-1.488-0.194-1.769 0.031-0.188 0.075-0.231 0.363-0.331 0.844-0.319 2.088-0.425 2.981-0.262 2.081 0.381 3.863 2.044 4.4 4.113 0.25 0.938 0.231 2.119-0.038 2.975-0.15 0.494-0.15 0.613 0.025 0.775 0.194 0.181 0.481 0.181 0.656-0.006 0.169-0.175 0.369-0.962 0.45-1.75 0.231-2.269-0.906-4.688-2.825-5.988-0.531-0.363-1.425-0.775-2.050-0.944-0.469-0.125-0.662-0.144-1.688-0.137-0.988 0-1.219 0.019-1.594 0.137-0.238 0.069-0.444 0.119-0.463 0.106-0.044-0.050 0.188-0.681 0.431-1.188 0.137-0.275 0.387-0.694 0.563-0.931 0.262-0.344 0.35-0.419 0.456-0.394 0.106 0.019 9.281 3.869 10.394 4.356l0.256 0.113-0.056 0.425c-0.031 0.238-0.125 0.681-0.219 0.981-0.125 0.419-0.15 0.588-0.106 0.719 0.119 0.331 0.619 0.406 0.806 0.113 0.163-0.25 0.406-1.238 0.481-1.944 0.212-2.069-0.55-4.194-2.044-5.688-1.625-1.625-3.95-2.375-6.206-1.994zM16.688 4.938c1.063 0.275 2.094 0.862 2.869 1.631 0.387 0.388 1.031 1.237 0.981 1.287-0.012 0.019-0.5-0.169-1.081-0.412-0.575-0.244-1.119-0.444-1.2-0.444-0.344 0-0.556 0.438-0.356 0.719 0.050 0.075 0.731 0.394 1.65 0.781l1.569 0.656 0.063 0.25c0.031 0.137 0.081 0.381 0.1 0.55 0.044 0.294 0.044 0.294-0.1 0.238-0.356-0.131-9.713-4.081-9.738-4.106-0.050-0.044 0.131-0.194 0.506-0.419l0.363-0.219 1.912 0.806c1.050 0.444 1.962 0.806 2.031 0.806 0.337 0 0.556-0.325 0.431-0.631-0.081-0.181-0.181-0.237-2.15-1.063-0.8-0.331-0.912-0.4-0.787-0.444 0.575-0.213 2.094-0.206 2.938 0.013z"></path>
<path d="M5.881 8.537c-0.119 0.156-0.131 0.25-0.131 1.238 0 0.588-0.031 1.194-0.069 1.344-0.1 0.45-0.35 0.887-0.813 1.412-1.462 1.681-1.994 3.281-1.994 5.988 0 1.212 0.075 1.813 0.431 3.725 0.35 1.825 0.337 2.188-0.1 3.25-0.381 0.919-0.475 1.756-0.3 2.6 0.138 0.656 0.444 0.875 0.813 0.581 0.169-0.131 0.169-0.144 0.119-0.544-0.094-0.706-0.056-1.5 0.087-1.881 0.5-1.356 0.525-1.456 0.556-2.056 0.031-0.538 0-0.775-0.3-2.35l-0.331-1.75v-1.531c-0.006-1.637 0.044-2.075 0.319-2.969 0.294-0.925 0.737-1.694 1.475-2.525 0.844-0.956 1.044-1.588 1.044-3.287 0-1.106-0.006-1.137-0.144-1.269-0.206-0.194-0.5-0.181-0.662 0.025z"></path>
<path d="M15.381 19.494c-0.537 0.538-1.006 0.856-1.831 1.256-0.981 0.475-1.5 0.962-1.925 1.813-0.231 0.475-0.444 0.719-0.75 0.875-0.331 0.169-0.644 0.212-1 0.125-0.438-0.106-0.762-0.363-0.963-0.756-0.256-0.519-0.231-0.869 0.15-1.806 0.175-0.425 0.313-0.819 0.313-0.875 0-0.206-0.244-0.438-0.463-0.438-0.287 0-0.406 0.163-0.762 1.031-0.294 0.731-0.3 0.769-0.306 1.406 0 0.619 0.013 0.681 0.2 1.069 0.25 0.512 0.637 0.875 1.194 1.137 0.369 0.169 0.481 0.194 0.95 0.194 1.012-0.006 1.744-0.481 2.25-1.481 0.369-0.731 0.706-1.050 1.5-1.431 0.85-0.413 1.475-0.837 2.044-1.394 0.4-0.394 0.456-0.481 0.456-0.675 0-0.275-0.194-0.481-0.45-0.481-0.131 0-0.275 0.106-0.606 0.431z"></path>
<path d="M7.456 25.881c-0.969 0.313-1.013 0.363-1.194 1.281-0.188 0.938-0.181 1.038 0.075 1.294 0.431 0.431 1.106 0.981 1.25 1.019 0.225 0.056 1.569-0.387 1.794-0.587 0.162-0.15 0.2-0.269 0.344-0.969 0.131-0.656 0.15-0.837 0.088-0.981-0.069-0.169-0.881-0.944-1.188-1.137-0.287-0.181-0.4-0.175-1.169 0.081zM8.619 27.019l0.275 0.281-0.088 0.413c-0.044 0.225-0.094 0.438-0.113 0.462-0.019 0.031-0.225 0.119-0.463 0.194l-0.419 0.144-0.237-0.188c-0.125-0.106-0.294-0.256-0.369-0.337-0.138-0.144-0.138-0.15-0.031-0.606l0.106-0.456 0.438-0.137c0.25-0.081 0.475-0.125 0.531-0.094 0.050 0.025 0.219 0.175 0.369 0.325z"></path>
</symbol>
<symbol id="icon-clean" viewBox="0 0 32 32">
<path d="M25.75 1.95c-0.55 0.275-2.4 2.275-5.050 5.425-2.3 2.725-4.2 5.050-4.2 5.125s0.95 1.075 2.1 2.225c1.6 1.6 2.2 2.050 2.45 1.85 3.825-3 9.55-7.725 10.025-8.325 1.65-1.95 0.875-5.125-1.6-6.4-0.95-0.475-2.675-0.45-3.725 0.1zM27.85 5.15c0.55 0.2 0.5 1.275-0.050 1.575-0.925 0.5-1.75-0.675-1-1.425 0.35-0.35 0.5-0.35 1.050-0.15z"></path>
<path d="M7.825 4.45c-0.325 0.050-0.9 0.425-1.325 0.825-1.475 1.475-0.8 3.875 1.225 4.5 2.6 0.775 4.65-2.65 2.675-4.5-0.65-0.6-1.75-0.975-2.575-0.825z"></path>
<path d="M9.575 12.25c-0.325 0.125-0.575 0.325-0.575 0.425 0 0.275 11.45 11.7 11.575 11.575 0.75-0.85 0.875-2.775 0.3-4.175-0.5-1.2-6.175-6.925-7.5-7.575-1.075-0.525-2.85-0.625-3.8-0.25z"></path>
<path d="M1.95 14.175c-2.575 2.625-2.575 5.025 0 7.65 1.6 1.625 2.55 1.85 4.15 1.075 0.925-0.45 1.35-0.55 1.7-0.375 1 0.55 0.35 1.625-1.425 2.375l-1 0.4 1.1 0.975c1.4 1.25 2.2 1.35 3.95 0.425 0.875-0.45 1.1-0.5 1.425-0.225 0.225 0.2 0.4 0.55 0.4 0.775 0 0.575-1.125 1.5-2.050 1.675-0.95 0.2-0.875 0.475 0.3 1.075 1.075 0.55 2.8 0.65 3.9 0.25 0.375-0.15 1.625-1.175 2.775-2.3l2.1-2.050-11.875-11.875-1.2 1.125c-1.25 1.15-1.825 1.3-2.275 0.55-0.2-0.3-0.175-0.6 0.075-1.075s0.275-0.775 0.075-1.075c-0.45-0.725-0.925-0.6-2.125 0.625z"></path>
<path d="M26.875 18.125c-1.225 1.2-0.475 2.975 1.25 2.975 1.075 0 1.875-0.75 1.875-1.775 0-0.8-1.050-1.825-1.875-1.825-0.35 0-0.925 0.275-1.25 0.625z"></path>
<path d="M22.8 25.3c-0.15 0.15-0.3 0.525-0.3 0.825 0 0.375-0.225 0.6-0.8 0.75-1.425 0.425-1.225 1.85 0.25 1.875 0.4 0 0.55 0.15 0.55 0.55 0.025 1.475 1.45 1.65 1.85 0.25 0.175-0.6 0.375-0.8 0.775-0.8 1.325 0 1.475-1.475 0.2-1.85-0.575-0.175-0.85-0.45-1-1-0.225-0.85-1-1.125-1.525-0.6z"></path>
</symbol>
<symbol id="icon-manicure" viewBox="0 0 32 32">
<path d="M24.9 3.475c-2.425 2.425-2.675 2.775-2.625 3.475 0.075 0.65-0.1 1-1.075 1.975-0.65 0.675-1.225 1.45-1.275 1.725-0.025 0.3-0.375 0.9-0.75 1.325-0.375 0.45-0.625 0.925-0.525 1.050 0.075 0.125-0.1 0.225-0.375 0.225-0.7 0-1.1 0.875-0.9 1.925l0.15 0.875 0.75-0.825c0.4-0.45 0.725-1.025 0.725-1.275 0-0.6 1.475-1.925 2.125-1.95 0.3 0 1.075-0.55 1.725-1.225 1.050-1.075 1.325-1.225 1.95-1.1 0.675 0.125 0.975-0.1 3.475-2.6 3.25-3.25 3.35-3.6 1.65-5.275-1.6-1.575-1.875-1.5-5.025 1.675z"></path>
<path d="M15.75 3.625c0 0.2-0.3 0.525-0.675 0.725-0.5 0.275-0.575 0.375-0.275 0.4 0.25 0 0.625 0.3 0.875 0.65 0.425 0.65 0.425 0.65 0.625 0.125 0.1-0.3 0.425-0.625 0.725-0.725 0.5-0.2 0.5-0.2-0.125-0.5-0.35-0.15-0.65-0.45-0.65-0.675 0-0.2-0.1-0.375-0.25-0.375-0.125 0-0.25 0.175-0.25 0.375z"></path>
<path d="M6.2 9.775c-0.65 0.625-0.675 0.675-0.2 0.8 0.275 0.075 0.6 0.4 0.725 0.725 0.25 0.575 0.25 0.575 0.4 0.050 0.1-0.3 0.375-0.65 0.625-0.75 0.425-0.2 0.4-0.275-0.225-0.85l-0.65-0.625-0.675 0.65z"></path>
<path d="M14.475 12.9c-0.55 0.575-0.6 0.875-0.675 3.45-0.1 3.45 0.025 3.65 2.2 3.65 1.825 0 2.25-0.375 2.25-1.9 0-1.025-0.025-1.075-0.5-0.8-0.675 0.425-1 0.050-1.275-1.45-0.2-1.1-0.1-1.95 0.4-3.175 0.15-0.35 0.025-0.425-0.8-0.425-0.75 0-1.15 0.175-1.6 0.65z"></path>
<path d="M4.55 16.625c-0.425 0.2-0.875 0.55-1.025 0.85-0.375 0.7-0.35 6.1 0.025 6.475 0.4 0.4 3.25 0.4 3.65 0 0.2-0.2 0.3-1.3 0.3-3.325 0-2.825-0.050-3.075-0.55-3.55-0.775-0.7-1.475-0.825-2.4-0.45z"></path>
<path d="M12.375 16.5c-0.375 0.55-0.5 12.575-0.125 13.225 0.25 0.5 0.475 0.525 3.75 0.525s3.5-0.025 3.75-0.525c0.425-0.75 0.225-12.85-0.175-13.275-0.25-0.25-0.325 0.050-0.325 1.4 0 1.525-0.075 1.75-0.725 2.425-0.675 0.675-0.875 0.725-2.5 0.725-1.475 0-1.85-0.1-2.45-0.6-0.625-0.525-0.725-0.825-0.825-2.45-0.1-1.325-0.2-1.725-0.375-1.45z"></path>
<path d="M25.15 17.025c-0.65 0.5-0.65 0.575-0.65 3.575 0 2.025 0.1 3.15 0.3 3.35 0.175 0.175 0.95 0.3 1.725 0.3 2.1 0 2.225-0.2 2.225-3.5 0-2.55-0.050-2.75-0.65-3.475-0.775-0.95-1.95-1.025-2.95-0.25z"></path>
<path d="M1.825 20.825c-0.45 0.95-0.45 8.7-0.025 9.125 0.325 0.325 6.3 0.45 7.050 0.15 0.35-0.125 0.4-0.775 0.4-4.575 0-3.5-0.075-4.525-0.375-4.925-0.325-0.425-0.35-0.3-0.375 1.475 0 1.725-0.075 2.025-0.625 2.55-0.525 0.55-0.825 0.625-2.25 0.625-1.875 0-3.050-0.475-3.25-1.325-0.075-0.3-0.15-1.275-0.175-2.175-0.075-1.5-0.1-1.575-0.375-0.925z"></path>
<path d="M23.075 20.675c-0.225 0.375-0.325 1.875-0.325 4.9 0 3.75 0.050 4.4 0.4 4.525 0.75 0.3 6.725 0.175 7.050-0.15 0.45-0.45 0.4-8.075-0.075-9.075-0.325-0.725-0.325-0.7-0.35 0.925-0.050 2.85-0.625 3.45-3.375 3.45-1.225 0-1.725-0.125-2.225-0.5-0.6-0.475-0.65-0.7-0.725-2.575-0.075-1.775-0.125-1.975-0.375-1.5z"></path>
</symbol>
<symbol id="icon-pedicure" viewBox="0 0 32 32">
<path d="M3.25 2.475c-0.4 0.775-0.325 6.15 0.1 6.5 0.225 0.175 1.050 0.275 2.2 0.225l1.825-0.075 0.075-3.225c0.050-2.15-0.025-3.325-0.225-3.55s-0.85-0.35-2-0.35c-1.425 0-1.75 0.075-1.975 0.475z"></path>
<path d="M20.050 2.175c-1.025 0.075-1.375 0.225-1.65 0.65-0.175 0.3-1.2 2.875-2.275 5.725-1.85 4.875-2.050 5.3-3.55 7.1-0.9 1.075-2.125 2.975-2.825 4.35-1.45 2.925-3.075 4.625-5.4 5.775-2.35 1.15-2.375 2.1-0.15 3.4 0.95 0.575 1.475 0.7 2.8 0.7 2.175 0 2.8-0.35 6.375-3.65 3.3-3.050 4.675-3.85 7.15-4.2 1.95-0.275 2.925-0.725 3.8-1.75 1.55-1.85 1.5-4.15-0.1-5.9-1.625-1.75-1.5-2.3 1.65-6.725 1.45-2.050 2.625-3.925 2.625-4.175 0-0.275-0.225-0.7-0.5-0.975-0.45-0.45-0.8-0.5-3.55-0.45-1.7 0.025-3.675 0.075-4.4 0.125z"></path>
<path d="M3.925 10.425c-0.1 0.075-0.175 0.6-0.175 1.125v0.95h2.75v-2.25h-1.2c-0.675 0-1.3 0.075-1.375 0.175z"></path>
<path d="M3.925 13.675c-0.325 0.325-0.175 2.475 0.225 3.025 0.425 0.6 1.55 0.75 2.050 0.25 0.175-0.175 0.3-0.975 0.3-1.875v-1.575h-1.2c-0.675 0-1.3 0.075-1.375 0.175z"></path>
<path d="M4.5 19.425c-0.6 1.025-0.525 1.925 0.225 2.325 0.675 0.35 1.675-0.075 1.85-0.775 0.175-0.65-0.725-2.475-1.225-2.475-0.175 0-0.55 0.425-0.85 0.925z"></path>
</symbol>
<symbol id="icon-scissor" viewBox="0 0 32 32">
<path d="M19.55 2c-0.15 0.35-1.325 3.2-2.6 6.375-2.325 5.7-2.35 5.75-2 6.675 0.325 0.825 0.3 1.050-0.075 2.050l-0.425 1.125-5.225 2.65c-2.85 1.45-5.275 2.75-5.35 2.85-0.15 0.275 1.975 4.35 2.35 4.475 0.45 0.15 0.325-0.65-0.35-1.975-0.875-1.7-0.5-2.1 0.425-0.45 1.275 2.325 1.75 2.275 0.55-0.050-0.35-0.7-0.575-1.4-0.525-1.55 0.050-0.175 0.475 0.45 0.925 1.375 0.475 0.925 0.925 1.625 1.050 1.55 0.1-0.075-0.15-0.8-0.575-1.65-0.975-1.95-0.775-2.175 0.3-0.275 0.975 1.725 0.95 1.7 1.125 1.525 0.075-0.075-0.2-0.825-0.625-1.675-0.825-1.625-0.875-1.775-0.575-1.775 0.125 0 0.525 0.675 0.925 1.5s0.8 1.5 0.925 1.5c0.35 0 0.225-0.35-0.55-1.8-0.425-0.775-0.675-1.475-0.55-1.55s0.55 0.55 0.925 1.35c0.4 0.825 0.875 1.5 1.050 1.5 0.225 0 0.1-0.45-0.425-1.5-0.4-0.825-0.75-1.55-0.75-1.625 0-0.4 0.575 0.3 1.1 1.325s0.575 1.425 0.475 2.85c-0.125 1.4-0.050 1.8 0.375 2.5 1.35 2.175 4.45 1.85 5.725-0.55 0.675-1.275 0.725-2.425 0.175-3.7-0.475-1.1-1.35-3.825-1.325-4.175 0-0.15 0.225 0.175 0.5 0.675 0.275 0.525 0.6 0.95 0.725 0.95 0.375 0 0.325-0.175-0.525-1.775-0.45-0.825-0.725-1.55-0.65-1.625s0.5 0.525 0.9 1.375c0.425 0.85 0.9 1.525 1.025 1.525 0.35 0 0.325-0.1-0.5-1.75-0.425-0.825-0.675-1.5-0.55-1.5s0.525 0.675 0.925 1.5c0.4 0.825 0.8 1.5 0.925 1.5 0.35 0 0.225-0.475-0.55-2-1-1.975-0.6-1.925 0.475 0.050 1.025 1.85 1.35 1.575 0.4-0.3-0.35-0.7-0.6-1.425-0.55-1.575 0.050-0.175 0.45 0.4 0.9 1.25 0.425 0.875 0.9 1.575 1.025 1.575 0.35 0 0.35 0-0.5-1.525-0.775-1.425-0.875-1.725-0.55-1.725 0.1 0 0.5 0.625 0.875 1.375s0.775 1.375 0.925 1.375c0.35 0 0.325-0.1-0.5-1.75-1-1.975-0.6-1.925 0.475 0.050 1.025 1.85 1.35 1.575 0.4-0.3-0.35-0.7-0.6-1.425-0.55-1.575 0.050-0.175 0.45 0.4 0.9 1.25 0.425 0.875 0.9 1.575 1.025 1.575 0.35 0 0.35 0-0.5-1.525-0.775-1.425-0.875-1.725-0.55-1.725 0.1 0 0.5 0.625 0.875 1.375s0.775 1.375 0.925 1.375c0.35 0 0.325-0.1-0.5-1.75-1-2-0.55-1.925 0.5 0.050 1 1.85 1.325 1.575 0.375-0.3-0.35-0.7-0.6-1.425-0.55-1.575 0.050-0.175 0.45 0.4 0.9 1.25 0.425 0.875 0.9 1.575 1.025 1.575 0.35 0 0.325-0.1-0.5-1.75-0.95-1.875-0.625-1.975 0.375-0.125 0.4 0.75 0.825 1.375 0.925 1.375 0.3 0 0.25-0.15-0.55-1.75-0.425-0.825-0.675-1.5-0.55-1.5s0.525 0.675 0.925 1.5c0.4 0.825 0.8 1.5 0.925 1.5 0.35 0 0.225-0.45-0.425-1.75-0.95-1.85-0.725-2.1 0.275-0.325 1.15 2.025 1.6 2.050 0.6 0.050-0.425-0.825-0.725-1.65-0.675-1.8 0.050-0.175 0.45 0.4 0.9 1.25 0.425 0.875 0.9 1.575 1.025 1.575 0.375 0 0.3-0.225-0.5-1.675-0.8-1.425-0.85-1.575-0.55-1.575 0.125 0 0.475 0.575 0.8 1.25 0.325 0.7 0.75 1.4 0.925 1.55 0.55 0.45 0.4-0.175-0.425-1.8-0.425-0.825-0.65-1.5-0.5-1.5 0.125 0 0.575 0.675 1 1.5 0.425 0.85 0.875 1.45 0.975 1.375 0.125-0.075-0.1-0.725-0.5-1.45-0.4-0.7-0.725-1.45-0.725-1.625 0-0.675 0.45-0.25 1 0.95 0.625 1.325 1.075 1.85 1.475 1.7 0.275-0.075-1.275-3.575-1.9-4.25-0.375-0.425-0.75-0.275-6.975 2.95-3.625 1.85-6.6 3.325-6.6 3.25 0-0.050 0.85-3.525 1.875-7.7 1.7-6.85 2.15-9.175 1.425-7.45zM16.325 13.9c0.225 0.25-0.1 0.85-0.45 0.85-0.425 0-0.7-0.425-0.5-0.75 0.175-0.275 0.7-0.325 0.95-0.1zM12.925 21.3c-0.075 0.2-0.15 0.125-0.15-0.15-0.025-0.275 0.050-0.425 0.125-0.325 0.075 0.075 0.1 0.3 0.025 0.475zM12.45 21.875c0.15 0.35 0.2 0.625 0.075 0.625-0.1 0-0.325-0.275-0.475-0.625s-0.2-0.625-0.075-0.625c0.1 0 0.325 0.275 0.475 0.625zM11.875 22.5c0.425 0.825 0.45 1 0.175 1-0.125 0-0.4-0.4-0.625-0.875-0.5-1.050-0.1-1.175 0.45-0.125zM11.15 23.275c0.35 0.7 0.575 1.325 0.5 1.4-0.1 0.125-1.4-2.225-1.4-2.55 0-0.375 0.3 0.025 0.9 1.15zM15.925 25.050c0.725 0.8 0.9 1.575 0.575 2.55-0.35 1.050-1.175 1.85-2.2 2.050-0.65 0.125-0.9 0.025-1.55-0.6-1.175-1.175-1-2.75 0.45-3.975 0.875-0.75 2.050-0.75 2.725-0.025z"></path>
<path d="M24.125 10.15c-7 2.9-6.35 2.55-6.625 3.65-0.15 0.55-0.25 1.1-0.2 1.225s0.8-0.225 1.7-0.75c0.9-0.525 3.375-1.975 5.5-3.25 2.125-1.25 3.65-2.275 3.375-2.25-0.275 0-1.95 0.625-3.75 1.375z"></path>
<path d="M2.975 14.5c-1.875 0.55-3.125 2.325-2.9 4.1 0.1 0.75 0.375 1.25 1.050 1.875 0.875 0.775 1.025 0.825 2.35 0.725 1.25-0.1 1.875-0.375 5.9-2.775 2.475-1.475 4.65-2.775 4.85-2.9s0.275-0.425 0.175-0.7c-0.15-0.475-0.175-0.475-1.475-0.050-1.75 0.625-4.6 0.6-6.95-0.025-2.050-0.55-2.075-0.55-3-0.25zM5.625 16.125c1.050 1.025 0.725 2.575-0.725 3.575-1.675 1.15-3.65 0.35-3.65-1.5 0-2.225 2.875-3.6 4.375-2.075z"></path>
</symbol>
</defs>
</svg>
