<svg aria-hidden="true" style="position:absolute;width:0;height:0" xmlns="http://www.w3.org/2000/svg" overflow="hidden"><defs><symbol id="icon-instagram" viewBox="0 0 32 32"><path d="M16 2.881c4.275 0 4.781.019 6.462.094 1.563.069 2.406.331 2.969.55a4.952 4.952 0 011.837 1.194 5.015 5.015 0 011.2 1.838c.219.563.481 1.412.55 2.969.075 1.688.094 2.194.094 6.463s-.019 4.781-.094 6.463c-.069 1.563-.331 2.406-.55 2.969a4.94 4.94 0 01-1.194 1.837 5.02 5.02 0 01-1.837 1.2c-.563.219-1.413.481-2.969.55-1.688.075-2.194.094-6.463.094s-4.781-.019-6.463-.094c-1.563-.069-2.406-.331-2.969-.55a4.952 4.952 0 01-1.838-1.194 5.02 5.02 0 01-1.2-1.837c-.219-.563-.481-1.413-.55-2.969-.075-1.688-.094-2.194-.094-6.463s.019-4.781.094-6.463c.069-1.563.331-2.406.55-2.969a4.964 4.964 0 011.194-1.838 5.015 5.015 0 011.838-1.2c.563-.219 1.412-.481 2.969-.55 1.681-.075 2.188-.094 6.463-.094zM16 0c-4.344 0-4.887.019-6.594.094-1.7.075-2.869.35-3.881.744-1.056.412-1.95.956-2.837 1.85a7.833 7.833 0 00-1.85 2.831C.444 6.538.169 7.7.094 9.4.019 11.113 0 11.656 0 16s.019 4.887.094 6.594c.075 1.7.35 2.869.744 3.881.413 1.056.956 1.95 1.85 2.837a7.82 7.82 0 002.831 1.844c1.019.394 2.181.669 3.881.744 1.706.075 2.25.094 6.594.094s4.888-.019 6.594-.094c1.7-.075 2.869-.35 3.881-.744 1.05-.406 1.944-.956 2.831-1.844s1.438-1.781 1.844-2.831c.394-1.019.669-2.181.744-3.881.075-1.706.094-2.25.094-6.594s-.019-4.887-.094-6.594c-.075-1.7-.35-2.869-.744-3.881a7.506 7.506 0 00-1.831-2.844A7.82 7.82 0 0026.482.843C25.463.449 24.301.174 22.601.099c-1.712-.081-2.256-.1-6.6-.1z"/><path d="M16 7.781c-4.537 0-8.219 3.681-8.219 8.219s3.681 8.219 8.219 8.219 8.219-3.681 8.219-8.219A8.221 8.221 0 0016 7.781zm0 13.55a5.331 5.331 0 110-10.663 5.331 5.331 0 010 10.663zM26.462 7.456a1.919 1.919 0 11-3.838 0 1.919 1.919 0 013.838 0z"/></symbol><symbol id="icon-clock" viewBox="0 0 32 32"><path d="M9.5 1.4C-.6 5.8-3 19.2 4.9 27.1c6.5 6.5 15.7 6.5 22.2 0C39.5 14.7 25.6-5.6 9.5 1.4zM23 3c4.5 2.3 8 8 8 13 0 7.6-7.4 15-15 15-5 0-10.7-3.5-13-8C.5 18 .5 14 3 9 6.7 1.7 15.4-.9 23 3z"/><path d="M9.2 4C2.7 8 .3 15.8 3.5 22c2.2 4.3 2.5 3.7.6-1.5-1.4-4-1.4-4.9-.1-8.6 2-5.7 5.9-8.4 11.8-8.4 2.6 0 5.6.4 6.7.8 1.1.5.9.2-.5-.7-3.5-2.1-8.9-2-12.8.4z"/><path d="M15 12.2c0 3.2.7 5.1 2.6 7.3 2.5 2.9 2.5 2.9 1 .3-.9-1.5-1.6-4.8-1.6-7.3S16.6 8 16 8c-.5 0-1 1.9-1 4.2z"/><path d="M27.7 9.5c.4 1.1.8 4.1.8 6.7 0 5.9-2.7 9.8-8.4 11.8-3.7 1.3-4.6 1.3-8.9-.2-3.8-1.4-4.3-1.4-2.7-.2 2.8 2.1 6 2.7 9.9 2 8.9-1.7 14.4-12.4 10-19.6-.9-1.4-1.2-1.6-.7-.5z"/></symbol><symbol id="icon-smartphone-call" viewBox="0 0 32 32"><path d="M7.5 1.3c-.3.7-.4 7.8-.3 15.7l.3 14.5h17V.5L16.2.2C10 0 7.8.3 7.5 1.3zm16.3 14.5l.3 12.2H8V16.2c0-6.5.3-12.2.7-12.6s3.9-.5 7.8-.4l7 .3.3 12.3zM17 30c0 .5-.4 1-1 1-.5 0-1-.5-1-1 0-.6.5-1 1-1 .6 0 1 .4 1 1z"/></symbol><symbol id="icon-location" viewBox="0 0 32 32"><path d="M9.9 2.9c-3.3 3.3-3.8 7.4-1.3 10.9 1.4 2.1 1.4 2.3-1 3.3-1.7.8-3.3 3.1-5 7.5C1.1 28.2 0 31.3 0 31.5c0 .3 1.9-.4 4.2-1.6l4.1-2.1 3.9 2.2 3.8 2.1 3.8-2.1 3.9-2.2 4.1 2.1c2.3 1.2 4.2 1.9 4.2 1.6 0-.2-1.1-3.3-2.6-6.9-1.7-4.4-3.3-6.7-5.1-7.5-2.1-1-2.3-1.4-1.3-2.6.7-.9 1.1-1.7.9-2-.3-.2-2 2.1-3.9 5.1-1.9 2.9-3.7 5.4-4 5.4s-2.2-2.6-4.2-5.8C7.4 10.4 7 6.9 10.5 3.5 15.2-1.3 22.4 1.2 24 8c.7 3.3.8 3.3.9.7C25 4.7 20.2 0 16 0c-2.2 0-4.1.9-6.1 2.9zm-.4 16.3c-.7 2.1-.6 2.2.7.5 1.2-1.6 1.5-1.5 3.2 1.8 1.1 1.9 2.2 3.5 2.6 3.5s1.5-1.6 2.6-3.5c1.8-3.4 2.7-3.5 3.7-.5.2.8.3.3.1-1.3-.3-2.5-.2-2.7 1.7-1.6 1.9 1 3.7 4.2 5.4 9.7.7 2.3.7 2.3-2.4.7-1.7-.8-3.1-2.3-3.2-3.3 0-1.4-.2-1.4-.6-.2-.9 2.4-4.6 5-7.3 5s-6.4-2.6-7.3-5c-.4-1.2-.6-1.2-.6.2C8 26.6 2 31 2 29.7c0-2.3 3.7-10.1 5.3-11.2 2.8-2 3-1.9 2.2.7z"/><path d="M12.2 5.2C9.4 8 12 14 16 14s6.6-6 3.8-8.8C19.1 4.5 17.4 4 16 4s-3.1.5-3.8 1.2zM19 6.5c2.6 3.2-1.3 8.1-4.7 5.9C12 11 11.5 8.3 13 6.5c1.6-1.9 4.4-1.9 6 0z"/><path d="M13.4 7.4c-1 2.6.4 4.8 2.8 4.4 1.7-.2 2.3-1 2.3-2.8s-.6-2.6-2.3-2.8c-1.3-.2-2.5.3-2.8 1.2zM18 9c0 1.3-.7 2-2 2s-2-.7-2-2 .7-2 2-2 2 .7 2 2z"/></symbol></defs></svg>