<svg aria-hidden="true" style="position: absolute; width: 0; height: 0; overflow: hidden;" version="1.1" xmlns="http://www.w3.org/2000/svg" xmlns:xlink="http://www.w3.org/1999/xlink">
<defs>
<symbol id="icon-instagram" viewBox="0 0 32 32">
<path d="M16 2.881c4.275 0 4.781 0.019 6.462 0.094 1.563 0.069 2.406 0.331 2.969 0.55 0.744 0.288 1.281 0.638 1.837 1.194 0.563 0.563 0.906 1.094 1.2 1.838 0.219 0.563 0.481 1.412 0.55 2.969 0.075 1.688 0.094 2.194 0.094 6.463s-0.019 4.781-0.094 6.463c-0.069 1.563-0.331 2.406-0.55 2.969-0.288 0.744-0.637 1.281-1.194 1.837-0.563 0.563-1.094 0.906-1.837 1.2-0.563 0.219-1.413 0.481-2.969 0.55-1.688 0.075-2.194 0.094-6.463 0.094s-4.781-0.019-6.463-0.094c-1.563-0.069-2.406-0.331-2.969-0.55-0.744-0.288-1.281-0.637-1.838-1.194-0.563-0.563-0.906-1.094-1.2-1.837-0.219-0.563-0.481-1.413-0.55-2.969-0.075-1.688-0.094-2.194-0.094-6.463s0.019-4.781 0.094-6.463c0.069-1.563 0.331-2.406 0.55-2.969 0.288-0.744 0.638-1.281 1.194-1.838 0.563-0.563 1.094-0.906 1.838-1.2 0.563-0.219 1.412-0.481 2.969-0.55 1.681-0.075 2.188-0.094 6.463-0.094zM16 0c-4.344 0-4.887 0.019-6.594 0.094-1.7 0.075-2.869 0.35-3.881 0.744-1.056 0.412-1.95 0.956-2.837 1.85-0.894 0.888-1.438 1.781-1.85 2.831-0.394 1.019-0.669 2.181-0.744 3.881-0.075 1.713-0.094 2.256-0.094 6.6s0.019 4.887 0.094 6.594c0.075 1.7 0.35 2.869 0.744 3.881 0.413 1.056 0.956 1.95 1.85 2.837 0.887 0.887 1.781 1.438 2.831 1.844 1.019 0.394 2.181 0.669 3.881 0.744 1.706 0.075 2.25 0.094 6.594 0.094s4.888-0.019 6.594-0.094c1.7-0.075 2.869-0.35 3.881-0.744 1.050-0.406 1.944-0.956 2.831-1.844s1.438-1.781 1.844-2.831c0.394-1.019 0.669-2.181 0.744-3.881 0.075-1.706 0.094-2.25 0.094-6.594s-0.019-4.887-0.094-6.594c-0.075-1.7-0.35-2.869-0.744-3.881-0.394-1.063-0.938-1.956-1.831-2.844-0.887-0.887-1.781-1.438-2.831-1.844-1.019-0.394-2.181-0.669-3.881-0.744-1.712-0.081-2.256-0.1-6.6-0.1v0z"></path>
<path d="M16 7.781c-4.537 0-8.219 3.681-8.219 8.219s3.681 8.219 8.219 8.219 8.219-3.681 8.219-8.219c0-4.537-3.681-8.219-8.219-8.219zM16 21.331c-2.944 0-5.331-2.387-5.331-5.331s2.387-5.331 5.331-5.331c2.944 0 5.331 2.387 5.331 5.331s-2.387 5.331-5.331 5.331z"></path>
<path d="M26.462 7.456c0 1.060-0.859 1.919-1.919 1.919s-1.919-0.859-1.919-1.919c0-1.060 0.859-1.919 1.919-1.919s1.919 0.859 1.919 1.919z"></path>
</symbol>
<symbol id="icon-clock" viewBox="0 0 32 32">
<path d="M9.5 1.4c-10.1 4.4-12.5 17.8-4.6 25.7 6.5 6.5 15.7 6.5 22.2 0 12.4-12.4-1.5-32.7-17.6-25.7zM23 3c4.5 2.3 8 8 8 13 0 7.6-7.4 15-15 15-5 0-10.7-3.5-13-8-2.5-5-2.5-9 0-14 3.7-7.3 12.4-9.9 20-6z"></path>
<path d="M9.2 4c-6.5 4-8.9 11.8-5.7 18 2.2 4.3 2.5 3.7 0.6-1.5-1.4-4-1.4-4.9-0.1-8.6 2-5.7 5.9-8.4 11.8-8.4 2.6 0 5.6 0.4 6.7 0.8 1.1 0.5 0.9 0.2-0.5-0.7-3.5-2.1-8.9-2-12.8 0.4z"></path>
<path d="M15 12.2c0 3.2 0.7 5.1 2.6 7.3 2.5 2.9 2.5 2.9 1 0.3-0.9-1.5-1.6-4.8-1.6-7.3s-0.4-4.5-1-4.5c-0.5 0-1 1.9-1 4.2z"></path>
<path d="M27.7 9.5c0.4 1.1 0.8 4.1 0.8 6.7 0 5.9-2.7 9.8-8.4 11.8-3.7 1.3-4.6 1.3-8.9-0.2-3.8-1.4-4.3-1.4-2.7-0.2 2.8 2.1 6 2.7 9.9 2 8.9-1.7 14.4-12.4 10-19.6-0.9-1.4-1.2-1.6-0.7-0.5z"></path>
</symbol>
<symbol id="icon-smartphone-call" viewBox="0 0 32 32">
<path d="M7.5 1.3c-0.3 0.7-0.4 7.8-0.3 15.7l0.3 14.5h17v-31l-8.3-0.3c-6.2-0.2-8.4 0.1-8.7 1.1zM23.8 15.8l0.3 12.2h-16.1v-11.8c0-6.5 0.3-12.2 0.7-12.6s3.9-0.5 7.8-0.4l7 0.3 0.3 12.3zM17 30c0 0.5-0.4 1-1 1-0.5 0-1-0.5-1-1 0-0.6 0.5-1 1-1 0.6 0 1 0.4 1 1z"></path>
</symbol>
<symbol id="icon-location" viewBox="0 0 32 32">
<path d="M9.9 2.9c-3.3 3.3-3.8 7.4-1.3 10.9 1.4 2.1 1.4 2.3-1 3.3-1.7 0.8-3.3 3.1-5 7.5-1.5 3.6-2.6 6.7-2.6 6.9 0 0.3 1.9-0.4 4.2-1.6l4.1-2.1 3.9 2.2 3.8 2.1 3.8-2.1 3.9-2.2 4.1 2.1c2.3 1.2 4.2 1.9 4.2 1.6 0-0.2-1.1-3.3-2.6-6.9-1.7-4.4-3.3-6.7-5.1-7.5-2.1-1-2.3-1.4-1.3-2.6 0.7-0.9 1.1-1.7 0.9-2-0.3-0.2-2 2.1-3.9 5.1-1.9 2.9-3.7 5.4-4 5.4s-2.2-2.6-4.2-5.8c-4.4-6.8-4.8-10.3-1.3-13.7 4.7-4.8 11.9-2.3 13.5 4.5 0.7 3.3 0.8 3.3 0.9 0.7 0.1-4-4.7-8.7-8.9-8.7-2.2 0-4.1 0.9-6.1 2.9zM9.5 19.2c-0.7 2.1-0.6 2.2 0.7 0.5 1.2-1.6 1.5-1.5 3.2 1.8 1.1 1.9 2.2 3.5 2.6 3.5s1.5-1.6 2.6-3.5c1.8-3.4 2.7-3.5 3.7-0.5 0.2 0.8 0.3 0.3 0.1-1.3-0.3-2.5-0.2-2.7 1.7-1.6 1.9 1 3.7 4.2 5.4 9.7 0.7 2.3 0.7 2.3-2.4 0.7-1.7-0.8-3.1-2.3-3.2-3.3 0-1.4-0.2-1.4-0.6-0.2-0.9 2.4-4.6 5-7.3 5s-6.4-2.6-7.3-5c-0.4-1.2-0.6-1.2-0.6 0.2-0.1 1.4-6.1 5.8-6.1 4.5 0-2.3 3.7-10.1 5.3-11.2 2.8-2 3-1.9 2.2 0.7z"></path>
<path d="M12.2 5.2c-2.8 2.8-0.2 8.8 3.8 8.8s6.6-6 3.8-8.8c-0.7-0.7-2.4-1.2-3.8-1.2s-3.1 0.5-3.8 1.2zM19 6.5c2.6 3.2-1.3 8.1-4.7 5.9-2.3-1.4-2.8-4.1-1.3-5.9 1.6-1.9 4.4-1.9 6 0z"></path>
<path d="M13.4 7.4c-1 2.6 0.4 4.8 2.8 4.4 1.7-0.2 2.3-1 2.3-2.8s-0.6-2.6-2.3-2.8c-1.3-0.2-2.5 0.3-2.8 1.2zM18 9c0 1.3-0.7 2-2 2s-2-0.7-2-2c0-1.3 0.7-2 2-2s2 0.7 2 2z"></path>
</symbol>
</defs>
</svg>
