<svg aria-hidden="true" style="position:absolute;width:0;height:0" xmlns="http://www.w3.org/2000/svg" overflow="hidden"><defs><symbol id="icon-salon-chair" viewBox="0 0 32 32"><path d="M2 1.2c0 1.7 4.3 14.9 5.3 16.5.5.7 1.9 1.3 3.3 1.3 2.8 0 3.1 1.7.7 3.6-1.7 1.3-1.7 1.4.1.7 1.6-.5 1.8-.2 1.4 2.1-.5 2.2-.2 2.6 1.3 2.1 1-.4 2.7-.2 3.6.4 1 .6 1.4 1.1.8 1.1-.5.1-.1.5 1 1 1.4.6.2.8-4 .8-4.9-.1-5.4-.2-2.5-.7l3.5-.7-3-.6c-3.4-.7-4.5-.3-4.5 1.8 0 1.1 1.5 1.4 6.5 1.4s6.5-.3 6.5-1.5c0-.8-.9-1.9-2-2.5-1.5-.8-2-2.1-2-5 0-3.5.3-4 2.4-4 1.8 0 2.7.9 4 4 1.2 3.1 2.1 4 3.8 3.9 1.8-.1 1.9-.2.5-.6-2.5-.7-4.5-5.3-4-9 .5-2.9.2-3.3-2.3-3.9-3.5-.9-4.5-2.2-3.7-5.1.5-2.2.2-2.3-4.5-2.3C9.6 6 9 5.7 7.8 3.2 6.4.4 2-1.2 2 1.2zm5.8 6l2 6.3 6.8.5c5.5.4 6.9.8 7.2 2.2.3 1.6-.6 1.8-7.7 1.8h-8L5.5 9.9C2.6.5 2.6 1 4.5 1c.9 0 2.1 2.3 3.3 6.2zm8.5.5c-1.3.2-3.5.2-5 0-1.6-.2-.5-.4 2.2-.4 2.8 0 4 .2 2.8.4zm.7 1.7c0 .2.3 1.2.6 2.1.6 1.4.1 1.6-3.2 1.3-2.7-.2-4-.8-4.2-2.1-.3-1.4.4-1.7 3.2-1.7 2 0 3.6.2 3.6.4zm0 13.1c0 2.4-.5 3.5-1.5 3.5-1.1 0-1.4-.9-1.2-3.5.3-4.7 2.7-4.7 2.7 0z"/></symbol><symbol id="icon-salon" viewBox="0 0 32 32"><path d="M24 5c-3 2.7-5.9 5-6.5 5-.5 0-3.1-2.1-5.7-4.7-4.3-4.2-5-4.6-7.2-3.5C1.8 3-.5 6.6.9 7.4c.5.3 1.5-.2 2.2-1.1 1.2-1.4 1.2-1.6 0-.8-.9.5-1.2.4-.7-.3.4-.6 1.3-.9 2.2-.5 1.3.5 1.2.8-.3 2.6C3.2 8.5 3.1 9 3.9 8.5c1.1-.6 1.3-.4.8.8-.9 2.3.8 3 2.4 1 1.2-1.4 1.2-1.6 0-.8-.9.5-1.2.4-.7-.3.4-.6 1.3-.9 2.2-.5 1.3.5 1.2.8-.3 2.7l-1.8 2.1 2.3-1.9c1.2-1.1 2.2-1.4 2.2-.9 0 .6-.7 1.6-1.5 2.3-1.1.9-1.2 1.6-.5 2.5.8.9.8 1.5 0 2-.5.3-.7 1.7-.4 2.9.4 1.8-.1 2.8-1.7 4-3.2 2.2-4.6 2-1.9-.2l2.3-1.9-2.4-1.7-2.4-1.8 2.4.5c1.7.4 2.1.3 1.3-.5-.5-.5-1.9-.7-3-.3-3.9 1.2-3.9 6.8-.1 8 1 .4 1.9 1 1.9 1.5 0 1.3 3 4 4.5 4 2.3 0 4.7-3.1 4.1-5.4-.5-2 4-9.3 5.2-8.2.3.3-.3 1.4-1.2 2.5-1 1.1-1.3 2.2-.8 2.5s1.5-.1 2.2-.9c.7-.8 1.7-1.5 2.3-1.5.5 0 .2 1-.9 2.2l-1.9 2.3 2.1-1.8c1.9-1.5 2.2-1.6 2.7-.3.4.9.1 1.8-.5 2.2-.7.5-.8.2-.3-.7.8-1.2.6-1.2-.8 0-2 1.6-1.3 3.3 1 2.4 1.2-.5 1.4-.3.8.8-.5.8 0 .7 1.2-.4 1.8-1.5 2.1-1.6 2.6-.3.4.9.1 1.8-.5 2.2-.7.5-.8.2-.3-.7.8-1.2.6-1.2-.8 0-.9.7-1.4 1.7-1.1 2.2.8 1.4 4.4-.9 5.6-3.7 1.1-2.2.7-2.9-3.5-7.2-2.6-2.6-4.7-5.1-4.7-5.6s2.3-3.4 5-6.6c8-9.3 6.1-11.2-3-3zM11.9 6.4c5.5 5.6 4.7 8.6-.8 3.2-3-3-3.9-3.4-5.1-2.4-1.2 1.1-1.2 1-.2-.4.9-1.1 1-1.8.2-2.3-.5-.3-1-1-1-1.6 0-2.1 2.8-.6 6.9 3.5zm14.9.4C18.1 17.2 13.5 22 12.4 21.6c-.9-.3-1 .4-.2 3 1.4 5.3-2.1 8.6-5.2 4.9-1.1-1.3-.9-2.1.9-4.6 1.2-1.6 2.1-3.7 1.9-4.6-.3-1.9 16-16.6 17.4-15.7.5.3.3 1.3-.4 2.2zm-14.1 8c-.8.8-2 1.1-2.7.7-1.6-1 .7-3.5 2.7-2.8 1.3.5 1.3.7 0 2.1zm13.1 5.5c4 4.1 5.3 6.7 3.3 6.7-.6 0-1.3-.5-1.6-1-.5-.8-1.2-.7-2.3.2-1.5 1.1-1.5 1.1-.5-.3 1.1-1.3.7-2.1-2.2-4.9-3.1-3-3.7-5-1.6-5 .4 0 2.6 1.9 4.9 4.3zM4.5 23.6c-2.2 1.6-4.1.4-3.1-2.1.5-1.3 1-1.4 2.8-.4 2.1 1.1 2.1 1.2.3 2.5zM20 20.4c0 .2-.8 1-1.7 1.7-1.6 1.3-1.7 1.2-.4-.4s2.1-2.1 2.1-1.3z"/><path d="M19 12.5c-4.1 4.1-7.2 7.5-6.9 7.5.2 0 3.8-3.4 7.9-7.5S27.2 5 26.9 5c-.2 0-3.8 3.4-7.9 7.5zM8.1 26.4C6.7 28.1 7.4 30 9.5 30c2.2 0 2.9-2 1.3-3.6-1.3-1.3-1.6-1.3-2.7 0zm2.9 1.7c0 .5-.7.9-1.5.9-1.5 0-2-1.2-.9-2.3.8-.8 2.4.1 2.4 1.4zM2.1 22.6c0 1.1.3 1.4.6.6.3-.7.2-1.6-.1-1.9-.3-.4-.6.2-.5 1.3z"/></symbol><symbol id="icon-hair-salon" viewBox="0 0 32 32"><path d="M2.2 2.5C.6 4.1 0 5.9 0 8.9 0 11.1.5 13 1 13c1.3 0 1.3 14.7 0 15.5-.6.3-1 1.3-1 2.1C0 31.8 2.7 32 16 32s16-.2 16-1.4c0-.8-.4-1.8-1-2.1-1.3-.8-1.3-15.5 0-15.5.6 0 1-1.9 1-4.1 0-3.2-.6-4.7-2.6-6.5C27.1.2 26.2 0 15.7.1 5.5.2 4.3.4 2.2 2.5zM27.5 2c.4.6-3.7 1-11.5 1S4.1 2.6 4.5 2c.4-.6 5.3-1 11.5-1s11.1.4 11.5 1zm3.1 6v4l-14.1.4 6.3.3c4.6.3 6.2.8 6.2 1.8 0 1.2-1.4 1.5-6 1.5h-6v8h6c5.3 0 6 .2 6 1.9 0 1.5-.8 2.1-3.2 2.4-2.9.3-2.7.4 1 .5 2.3.1 4.2.6 4.2 1.2s-5.7 1-15 1-15-.4-15-1 4.2-1.1 10.3-1.2c5.6-.1 8.5-.3 6.5-.5l-3.8-.4V16H5v6c0 3.3-.4 6-1 6s-1-3.2-1-7.5v-7.4l6.3-.4 6.2-.3L1.4 12V4h29.2v4zM13 22.5V28H6V17h7v5.5zM29 20c0 3-.1 3-5.5 3S18 23 18 20s.1-3 5.5-3 5.5 0 5.5 3z"/><path d="M6.3 7.4c.3.8.1 1.7-.6 2-.7.2-.5.5.5.5 1.1.1 1.6-.6 1.5-1.9-.1-1.1-.5-2-1-2s-.7.6-.4 1.4zM10.7 6.7c-1.2 1.2-.7 3 .8 3 1.7 0 1.8-.6.7-2.5-.5-.7-1.1-.9-1.5-.5zM18 8c0 1.5.5 2 1.8 1.8.9-.2 1.7-1 1.7-1.8s-.8-1.6-1.7-1.8C18.5 6 18 6.5 18 8zm3 0c0 .5-.4 1-1 1-.5 0-1-.5-1-1 0-.6.5-1 1-1 .6 0 1 .4 1 1zM23 7.8c0 1.1.7 1.8 2 1.8 1.4 0 2-.7 2-2.1 0-1.6-.2-1.7-1-.5-.6 1-1 1.1-1 .2 0-.6-.4-1.2-1-1.2-.5 0-1 .8-1 1.8z"/></symbol><symbol id="icon-phone-call" viewBox="0 0 32 32"><path d="M17 .8c0 .6 1.1 1.3 2.4 1.6 3.7.9 8.4 5.3 9.8 9.1.6 1.9 1.6 3.5 2 3.5 2.5 0-2.8-9.6-6.5-11.8C20.6.7 17-.4 17 .8zM2.5 4.5C1.1 5.8 0 7.8 0 9c0 8.3 14.5 23 22.7 23 2.7 0 7.3-3.7 7.3-5.9 0-2-5-7.1-7-7.1-.7 0-2.2.7-3.2 1.6-1.6 1.6-2 1.4-5.9-2.5s-4.1-4.3-2.5-5.9c2.3-2.6 2-4.4-1.2-7.5-3.5-3.3-4.6-3.4-7.7-.2zm6.5 2c2.2 2.4 2.3 2.6.6 4.4-1.8 1.9-1.7 2.1.3 5.5 1.2 1.9 3.6 4.4 5.4 5.5 2.9 1.9 3.4 1.9 5.6.5 2.2-1.5 2.5-1.5 4.9 1 2.5 2.5 2.5 2.6.7 4.6-2.3 2.6-4.7 2.5-10.3-.2C9.4 24.4 2 14.7 2 9.2 2 7.6 4.8 4 6 4c.3 0 1.7 1.1 3 2.5zM17 7c0 .5.6 1 1.3 1 1.6 0 5.7 4.2 5.7 5.8 0 .7.5 1.2 1 1.2 2 0 1-3.2-1.9-6.1S17 5 17 7z"/></symbol></defs></svg>